<?xml version="1.0" encoding="UTF-8"?>
<!DOCTYPE svg PUBLIC "-//W3C//DTD SVG 1.1//EN" "http://www.w3.org/Graphics/SVG/1.1/DTD/svg11.dtd">
<svg version="1.2" width="106.1mm" height="99.1mm" viewBox="0 0 10610 9910" preserveAspectRatio="xMidYMid" fill-rule="evenodd" stroke-width="28.222" stroke-linejoin="round" xmlns="http://www.w3.org/2000/svg" xmlns:ooo="http://xml.openoffice.org/svg/export" xmlns:xlink="http://www.w3.org/1999/xlink" xmlns:presentation="http://sun.com/xmlns/staroffice/presentation" xmlns:smil="http://www.w3.org/2001/SMIL20/" xmlns:anim="urn:oasis:names:tc:opendocument:xmlns:animation:1.0" xml:space="preserve">
 <defs class="ClipPathGroup">
  <clipPath id="presentation_clip_path" clipPathUnits="userSpaceOnUse">
   <rect x="0" y="0" width="10610" height="9910"/>
  </clipPath>
  <clipPath id="presentation_clip_path_shrink" clipPathUnits="userSpaceOnUse">
   <rect x="10" y="9" width="10589" height="9891"/>
  </clipPath>
 </defs>
 <defs class="TextShapeIndex">
  <g ooo:slide="id1" ooo:id-list="id3"/>
 </defs>
 <defs class="EmbeddedBulletChars">
  <g id="bullet-char-template-57356" transform="scale(0.00048828125,-0.00048828125)">
   <path d="M 580,1141 L 1163,571 580,0 -4,571 580,1141 Z"/>
  </g>
  <g id="bullet-char-template-57354" transform="scale(0.00048828125,-0.00048828125)">
   <path d="M 8,1128 L 1137,1128 1137,0 8,0 8,1128 Z"/>
  </g>
  <g id="bullet-char-template-10146" transform="scale(0.00048828125,-0.00048828125)">
   <path d="M 174,0 L 602,739 174,1481 1456,739 174,0 Z M 1358,739 L 309,1346 659,739 1358,739 Z"/>
  </g>
  <g id="bullet-char-template-10132" transform="scale(0.00048828125,-0.00048828125)">
   <path d="M 2015,739 L 1276,0 717,0 1260,543 174,543 174,936 1260,936 717,1481 1274,1481 2015,739 Z"/>
  </g>
  <g id="bullet-char-template-10007" transform="scale(0.00048828125,-0.00048828125)">
   <path d="M 0,-2 C -7,14 -16,27 -25,37 L 356,567 C 262,823 215,952 215,954 215,979 228,992 255,992 264,992 276,990 289,987 310,991 331,999 354,1012 L 381,999 492,748 772,1049 836,1024 860,1049 C 881,1039 901,1025 922,1006 886,937 835,863 770,784 769,783 710,716 594,584 L 774,223 C 774,196 753,168 711,139 L 727,119 C 717,90 699,76 672,76 641,76 570,178 457,381 L 164,-76 C 142,-110 111,-127 72,-127 30,-127 9,-110 8,-76 1,-67 -2,-52 -2,-32 -2,-23 -1,-13 0,-2 Z"/>
  </g>
  <g id="bullet-char-template-10004" transform="scale(0.00048828125,-0.00048828125)">
   <path d="M 285,-33 C 182,-33 111,30 74,156 52,228 41,333 41,471 41,549 55,616 82,672 116,743 169,778 240,778 293,778 328,747 346,684 L 369,508 C 377,444 397,411 428,410 L 1163,1116 C 1174,1127 1196,1133 1229,1133 1271,1133 1292,1118 1292,1087 L 1292,965 C 1292,929 1282,901 1262,881 L 442,47 C 390,-6 338,-33 285,-33 Z"/>
  </g>
  <g id="bullet-char-template-9679" transform="scale(0.00048828125,-0.00048828125)">
   <path d="M 813,0 C 632,0 489,54 383,161 276,268 223,411 223,592 223,773 276,916 383,1023 489,1130 632,1184 813,1184 992,1184 1136,1130 1245,1023 1353,916 1407,772 1407,592 1407,412 1353,268 1245,161 1136,54 992,0 813,0 Z"/>
  </g>
  <g id="bullet-char-template-8226" transform="scale(0.00048828125,-0.00048828125)">
   <path d="M 346,457 C 273,457 209,483 155,535 101,586 74,649 74,723 74,796 101,859 155,911 209,963 273,989 346,989 419,989 480,963 531,910 582,859 608,796 608,723 608,648 583,586 532,535 482,483 420,457 346,457 Z"/>
  </g>
  <g id="bullet-char-template-8211" transform="scale(0.00048828125,-0.00048828125)">
   <path d="M -4,459 L 1135,459 1135,606 -4,606 -4,459 Z"/>
  </g>
  <g id="bullet-char-template-61548" transform="scale(0.00048828125,-0.00048828125)">
   <path d="M 173,740 C 173,903 231,1043 346,1159 462,1274 601,1332 765,1332 928,1332 1067,1274 1183,1159 1299,1043 1357,903 1357,740 1357,577 1299,437 1183,322 1067,206 928,148 765,148 601,148 462,206 346,322 231,437 173,577 173,740 Z"/>
  </g>
 </defs>
 <defs class="TextEmbeddedBitmaps"/>
 <g>
  <g id="id2" class="Master_Slide">
   <g id="bg-id2" class="Background"/>
   <g id="bo-id2" class="BackgroundObjects"/>
  </g>
 </g>
 <g class="SlideGroup">
  <g>
   <g id="container-id1">
    <g id="id1" class="Slide" clip-path="url(#presentation_clip_path)">
     <g class="Page">
      <g class="Graphic">
       <g id="id3">
        <rect class="BoundingBox" stroke="none" fill="none" x="2070" y="735" width="6223" height="8255"/>
        <defs>
         <clipPath id="clip_path_1" clipPathUnits="userSpaceOnUse">
          <path d="M 2070,735 L 8292,735 8292,8989 2070,8989 2070,735 Z"/>
         </clipPath>
        </defs>
        <g clip-path="url(#clip_path_1)">
         <path fill="rgb(68,68,84)" stroke="none" d="M 3381,722 C 3273,1415 2780,1890 2104,1950 L 2041,1956 2041,4436 2041,6917 2118,6974 C 2417,7194 2717,7344 3084,7457 3295,7522 3393,7567 3529,7665 3873,7910 4146,8408 4219,8924 L 4231,9013 6282,9015 8332,9018 8332,7209 8332,5400 8311,5405 C 8195,5434 7749,5436 7572,5407 6641,5258 6112,4691 6236,3976 6333,3418 6521,2966 6876,2434 7095,2106 7163,1987 7212,1839 7269,1666 7272,1643 7273,1293 7274,947 7283,877 7344,736 7354,713 7362,693 7362,691 7362,689 6467,687 5374,687 L 3386,687 3381,722 Z M 7363,759 C 7307,906 7301,949 7301,1293 7299,1803 7268,1895 6904,2439 6375,3232 6142,4027 6299,4507 6494,5105 7323,5489 8206,5393 8336,5378 8332,5380 8332,5331 L 8332,5289 8255,5297 C 7063,5415 6195,4759 6380,3878 6502,3298 6636,2989 7008,2423 7304,1975 7357,1833 7351,1498 7344,1081 7370,922 7473,764 7492,734 7510,705 7514,699 7520,690 7506,687 7456,687 L 7391,687 7363,759 Z M 7525,731 C 7407,885 7368,1071 7377,1431 7388,1833 7341,1966 7026,2443 6647,3017 6466,3456 6390,3985 6286,4714 6984,5282 7982,5281 8080,5281 8191,5277 8230,5272 8268,5267 8307,5263 8316,5263 8329,5262 8332,5254 8332,5215 8332,5169 8331,5167 8311,5173 8260,5189 7880,5190 7763,5174 6890,5060 6391,4545 6508,3878 6596,3376 6763,2980 7097,2481 7397,2032 7433,1930 7429,1530 7425,1056 7512,828 7738,715 L 7794,687 7676,687 7559,687 7525,731 Z M 8150,714 C 8186,728 8241,755 8272,773 L 8328,806 8331,765 C 8335,698 8315,687 8188,687 L 8085,687 8150,714 Z M 7799,717 C 7552,804 7460,1012 7459,1488 7458,1943 7426,2035 7116,2499 6887,2841 6782,3041 6680,3329 6609,3529 6540,3812 6522,3973 6445,4670 7122,5179 8094,5157 8335,5152 8332,5153 8332,5099 L 8332,5060 8147,5064 C 7183,5089 6531,4569 6638,3860 6707,3406 6871,3012 7204,2508 7478,2092 7518,1975 7509,1630 7495,1166 7608,915 7867,835 8000,793 8094,812 8325,927 8329,929 8332,910 8332,885 L 8332,840 8259,795 C 8102,701 7930,671 7799,717 Z M 7861,863 C 7623,948 7521,1187 7536,1620 7548,1963 7500,2108 7250,2484 6896,3018 6748,3365 6666,3855 6576,4390 6922,4817 7579,4982 7773,5031 8077,5053 8275,5033 L 8332,5027 8332,4984 8332,4940 8164,4944 C 7348,4961 6768,4553 6769,3962 6770,3557 6949,3081 7297,2559 7562,2162 7588,2085 7590,1684 7591,1451 7593,1421 7612,1354 7707,1010 7970,879 8269,1025 L 8332,1056 8332,1008 8332,960 8251,918 C 8113,845 7967,825 7861,863 Z M 7915,1012 C 7700,1086 7620,1264 7618,1675 7616,2083 7591,2159 7318,2575 7071,2951 6983,3127 6892,3426 6787,3774 6765,3987 6815,4180 6929,4618 7460,4917 8122,4917 8330,4917 8332,4917 8332,4863 L 8332,4820 8190,4823 C 7377,4839 6810,4372 6909,3767 6979,3338 7114,3021 7428,2549 7642,2227 7671,2134 7668,1785 7663,1239 7909,997 8298,1166 L 8333,1181 8331,1132 8328,1083 8261,1050 C 8144,992 8014,978 7915,1012 Z M 7957,1166 C 7765,1245 7681,1454 7694,1818 7705,2117 7661,2247 7436,2583 6983,3261 6821,3867 6996,4233 7163,4581 7637,4805 8183,4795 L 8328,4792 8330,4749 8333,4706 8158,4700 C 7385,4677 6932,4243 7058,3646 7140,3254 7242,3020 7503,2628 7725,2293 7746,2228 7748,1884 7750,1639 7757,1596 7810,1482 7896,1301 8078,1223 8265,1285 L 8332,1308 8332,1259 8332,1211 8288,1190 C 8178,1138 8048,1128 7957,1166 Z M 8084,1294 C 7875,1320 7780,1498 7776,1870 7773,2233 7747,2310 7510,2664 7154,3195 6989,3751 7092,4069 7210,4432 7653,4674 8199,4675 L 8332,4675 8332,4629 8332,4582 8227,4582 C 7576,4582 7103,4185 7174,3698 7226,3345 7344,3060 7604,2662 7811,2347 7822,2315 7824,2015 7826,1775 7836,1714 7887,1611 7965,1452 8124,1379 8285,1426 L 8333,1440 8330,1387 8328,1335 8281,1317 C 8222,1295 8145,1286 8084,1294 Z M 8135,1442 C 7943,1473 7851,1644 7854,1963 7858,2287 7836,2357 7623,2681 7336,3119 7198,3485 7199,3804 7200,4230 7594,4529 8181,4551 L 8332,4557 8332,4510 8332,4464 8218,4458 C 7693,4432 7324,4156 7308,3776 7296,3483 7434,3110 7707,2699 7886,2430 7916,2334 7906,2069 7893,1744 8028,1551 8259,1565 L 8333,1569 8330,1518 C 8327,1451 8254,1423 8135,1442 Z M 8173,1594 C 8002,1631 7931,1781 7931,2104 7931,2375 7908,2441 7706,2746 7379,3242 7257,3719 7386,3992 7504,4241 7826,4412 8209,4430 L 8332,4436 8332,4388 8332,4340 8286,4340 C 7931,4340 7584,4145 7475,3886 7374,3645 7497,3210 7792,2760 7971,2486 7980,2460 7983,2205 7986,1869 8079,1712 8275,1711 L 8332,1710 8332,1656 C 8332,1612 8329,1600 8316,1597 8273,1585 8220,1584 8173,1594 Z M 8219,1744 C 8070,1784 8013,1909 8010,2206 8008,2461 7996,2496 7810,2779 7502,3249 7396,3670 7522,3928 7626,4140 7966,4312 8282,4312 L 8332,4312 8332,4267 8332,4222 8246,4211 C 7818,4158 7559,3919 7579,3594 7593,3366 7701,3091 7885,2811 8043,2572 8062,2518 8062,2308 8062,2028 8133,1889 8289,1862 L 8328,1856 8330,1799 C 8334,1727 8316,1717 8219,1744 Z M 8300,1884 C 8295,1886 8279,1890 8264,1893 8151,1918 8090,2062 8090,2302 8090,2519 8068,2581 7903,2830 7675,3175 7561,3547 7617,3757 7677,3983 7938,4156 8261,4186 L 8333,4193 8331,4143 8328,4093 8272,4086 C 8019,4055 7799,3905 7735,3719 7665,3518 7763,3186 7995,2832 8124,2635 8153,2552 8143,2405 8130,2218 8188,2072 8296,2024 L 8332,2007 8332,1943 C 8332,1881 8329,1874 8300,1884 Z M 8290,2055 C 8201,2110 8172,2190 8169,2392 8166,2606 8155,2636 8005,2864 7811,3159 7709,3471 7744,3660 7783,3863 8010,4030 8293,4063 L 8332,4068 8332,4019 8332,3970 8252,3948 C 7774,3823 7721,3443 8100,2865 8205,2704 8213,2681 8220,2493 8227,2324 8253,2237 8310,2200 8330,2186 8332,2179 8332,2111 8332,2031 8331,2030 8290,2055 Z M 8301,2249 C 8260,2310 8248,2363 8248,2490 8248,2665 8233,2710 8099,2914 7897,3223 7824,3522 7912,3686 7977,3807 8192,3939 8325,3939 8330,3939 8332,3915 8330,3886 L 8328,3834 8281,3818 C 7919,3695 7888,3380 8194,2913 8287,2770 8298,2738 8300,2600 8302,2526 8308,2469 8318,2437 8329,2402 8332,2362 8330,2299 L 8328,2210 8301,2249 Z M 8326,2551 C 8326,2579 8328,2590 8330,2576 8332,2562 8332,2539 8330,2525 8328,2511 8326,2522 8326,2551 Z M 8323,2693 C 8322,2739 8285,2820 8213,2930 7920,3379 7951,3702 8297,3797 L 8332,3807 8332,3235 C 8332,2920 8330,2662 8328,2662 8325,2662 8323,2676 8323,2693 Z M 2041,6974 C 2041,6997 2053,7009 2118,7058 2390,7258 2628,7378 2997,7500 3307,7603 3412,7660 3574,7814 3855,8081 4067,8533 4110,8955 L 4116,9018 4162,9018 4208,9018 4202,8973 C 4101,8203 3702,7671 3087,7483 2728,7373 2363,7189 2081,6977 L 2041,6947 2041,6974 Z M 2041,7059 C 2041,7150 2581,7444 2979,7569 3547,7746 3903,8225 3993,8931 L 4004,9018 4049,9018 4094,9018 4089,8983 C 4021,8471 3819,8050 3516,7792 3364,7662 3268,7612 3026,7535 2657,7417 2384,7281 2095,7071 L 2041,7032 2041,7059 Z M 2041,7142 C 2041,7233 2550,7507 2956,7634 3444,7786 3803,8275 3871,8879 3888,9027 3883,9018 3932,9018 3981,9018 3982,9014 3960,8866 3862,8222 3509,7759 2989,7596 2631,7484 2334,7336 2072,7137 L 2041,7114 2041,7142 Z M 2041,7226 C 2041,7309 2506,7564 2861,7676 3203,7783 3421,7971 3586,8300 3685,8498 3768,8806 3768,8979 L 3768,9018 3815,9018 C 3870,9018 3868,9024 3848,8880 3773,8355 3499,7910 3143,7732 3065,7693 3047,7686 2853,7624 2577,7534 2330,7409 2095,7238 L 2041,7199 2041,7226 Z M 2041,7311 C 2041,7390 2478,7628 2821,7736 3274,7878 3601,8328 3642,8869 3645,8907 3650,8956 3653,8978 L 3657,9018 3701,9018 3745,9018 3738,8927 C 3703,8490 3474,8050 3176,7844 3078,7777 3026,7754 2831,7689 2547,7596 2381,7516 2156,7363 2043,7286 2041,7285 2041,7311 Z M 2041,7395 C 2041,7464 2417,7675 2718,7774 2962,7855 3044,7903 3176,8040 3388,8262 3534,8635 3535,8959 L 3535,9018 3583,9018 3631,9018 3624,8927 C 3599,8571 3453,8228 3232,8005 3095,7867 3012,7821 2755,7738 2523,7662 2355,7580 2156,7446 2042,7369 2041,7369 2041,7395 Z M 2041,7479 C 2041,7501 2053,7513 2114,7556 2300,7687 2438,7756 2677,7834 2751,7858 2838,7891 2869,7907 3171,8059 3393,8460 3411,8885 L 3416,9018 3463,9018 3510,9018 3504,8903 C 3485,8466 3242,8035 2923,7873 2902,7863 2808,7829 2713,7797 2504,7728 2320,7640 2159,7531 2043,7454 2041,7453 2041,7479 Z M 2041,7562 C 2041,7625 2336,7792 2610,7885 2779,7942 2839,7972 2923,8040 3143,8218 3293,8560 3296,8894 L 3297,9017 3347,9018 3398,9018 3392,8908 C 3373,8566 3257,8283 3050,8076 2933,7959 2870,7922 2671,7857 2444,7783 2255,7687 2062,7549 2042,7534 2041,7534 2041,7562 Z M 2041,7644 C 2041,7673 2045,7676 2158,7752 2270,7827 2400,7888 2559,7941 2958,8074 3175,8404 3175,8875 L 3175,9018 3224,9018 3273,9018 3273,8917 C 3273,8572 3132,8242 2905,8055 2829,7992 2774,7965 2603,7907 2432,7850 2282,7778 2160,7697 2107,7662 2060,7630 2053,7626 2045,7621 2041,7626 2041,7644 Z M 2042,7729 C 2042,7788 2274,7920 2521,8001 2769,8084 2916,8236 3008,8506 3056,8647 3076,8870 3051,8978 L 3042,9018 3092,9018 C 3155,9018 3154,9021 3154,8875 3153,8415 2938,8090 2551,7963 2411,7917 2253,7843 2146,7772 2101,7742 2060,7714 2053,7710 2045,7705 2042,7710 2042,7729 Z M 2042,7813 C 2043,7867 2233,7977 2467,8058 2676,8129 2795,8246 2881,8462 2942,8615 2962,8837 2926,8964 L 2911,9018 2966,9018 3020,9018 3028,8973 C 3076,8690 2967,8350 2768,8164 2692,8094 2643,8068 2490,8016 2354,7969 2229,7910 2130,7845 2094,7821 2060,7798 2053,7794 2045,7789 2042,7794 2042,7813 Z M 2041,7897 C 2041,7942 2216,8047 2377,8100 2543,8154 2624,8212 2705,8335 2834,8531 2862,8800 2775,9001 2768,9016 2774,9018 2828,9018 L 2889,9018 2900,8978 C 2937,8843 2916,8606 2853,8455 2768,8249 2658,8147 2447,8075 2327,8035 2195,7972 2116,7919 2038,7866 2041,7867 2041,7897 Z M 2041,7980 C 2041,8022 2189,8113 2335,8160 2437,8193 2489,8223 2546,8281 2717,8456 2762,8808 2634,8975 L 2602,9018 2672,9018 2743,9018 2762,8974 C 2863,8745 2766,8364 2567,8215 2510,8172 2484,8159 2387,8127 2280,8092 2202,8057 2127,8009 2093,7986 2060,7965 2053,7961 2045,7956 2041,7962 2041,7980 Z M 2041,8528 L 2041,9018 2309,9015 2577,9013 2607,8974 C 2793,8730 2648,8291 2348,8189 2246,8154 2177,8123 2115,8084 2087,8066 2060,8049 2053,8045 2044,8039 2041,8138 2041,8528 Z"/>
         <path fill="rgb(251,251,251)" stroke="none" d="M 1575,4545 L 1575,9483 6872,9483 12169,9483 12169,4545 12169,-394 6872,-394 1575,-394 1575,4545 Z M 7347,743 C 7287,890 7262,1085 7277,1295 7306,1697 7240,1892 6909,2392 6513,2991 6321,3452 6237,4009 6130,4721 6673,5270 7618,5408 7761,5429 8125,5430 8255,5409 L 8342,5396 8342,7207 8342,9018 6285,9018 4228,9018 4217,8941 C 4110,8190 3701,7647 3110,7470 2732,7357 2335,7157 2081,6952 L 2041,6920 2041,3803 2041,687 4706,687 7370,687 7347,743 Z M 7488,749 C 7380,909 7358,1021 7357,1395 7356,1865 7329,1946 7008,2433 6635,2999 6469,3391 6376,3930 6250,4664 6851,5229 7835,5301 7979,5312 8226,5303 8316,5284 8342,5279 8342,5279 8342,5330 L 8342,5381 8246,5394 C 8110,5412 7733,5409 7601,5390 6664,5248 6138,4692 6260,3972 6355,3412 6528,3001 6914,2415 7267,1879 7290,1812 7292,1330 7293,999 7299,933 7344,798 7381,686 7380,687 7460,687 L 7529,687 7488,749 Z M 7770,705 C 7528,800 7436,1024 7433,1530 7430,1955 7405,2025 7108,2472 6771,2979 6634,3293 6526,3809 6415,4337 6626,4741 7142,4992 7473,5152 7944,5225 8293,5170 L 8342,5162 8342,5211 C 8342,5270 8349,5266 8182,5282 7143,5378 6309,4796 6382,4025 6429,3534 6637,3020 7029,2430 7229,2130 7289,2017 7332,1860 7371,1721 7375,1677 7376,1372 7377,1006 7395,917 7503,756 L 7550,687 7682,687 7814,688 7770,705 Z M 8104,719 C 8145,732 8215,764 8260,791 L 8342,839 8342,890 C 8342,917 8339,939 8335,937 8331,935 8288,914 8239,890 7801,674 7493,972 7515,1591 7528,1964 7486,2089 7205,2516 6781,3158 6567,3803 6648,4194 6764,4754 7520,5152 8283,5054 L 8342,5047 8342,5098 8342,5149 8269,5157 C 7284,5263 6486,4751 6515,4032 6533,3584 6745,3045 7128,2471 7419,2037 7450,1946 7451,1521 7451,1338 7456,1220 7463,1181 7538,796 7785,618 8104,719 Z M 8317,706 C 8338,722 8342,733 8342,771 8342,826 8345,825 8281,784 8226,749 8165,720 8104,700 8069,689 8073,688 8179,687 8280,687 8295,689 8317,706 Z M 8101,854 C 8170,872 8265,914 8316,950 8339,965 8342,974 8342,1017 L 8342,1067 8293,1041 C 8015,892 7753,985 7645,1271 7599,1394 7592,1448 7594,1688 7597,2080 7574,2146 7284,2587 6922,3139 6719,3736 6774,4088 6857,4615 7516,4999 8237,4940 L 8342,4931 8342,4979 C 8342,5037 8345,5036 8151,5044 7202,5086 6529,4533 6665,3823 6757,3347 6900,3003 7187,2574 7505,2099 7532,2020 7534,1572 7535,1329 7537,1300 7556,1233 7639,933 7847,789 8101,854 Z M 8188,1013 C 8218,1023 8265,1044 8290,1058 L 8337,1083 8340,1138 C 8342,1180 8340,1191 8331,1187 8098,1086 7954,1098 7825,1230 7708,1349 7676,1467 7674,1777 7672,2158 7649,2228 7400,2600 6960,3258 6799,3890 6979,4246 7162,4608 7703,4854 8241,4820 L 8342,4814 8342,4865 8342,4916 8223,4923 C 7421,4969 6783,4546 6783,3967 6783,3580 6977,3079 7336,2537 7577,2174 7621,2040 7610,1716 7591,1170 7823,887 8188,1013 Z M 8186,1148 C 8216,1156 8263,1173 8291,1186 L 8342,1210 8342,1264 8342,1318 8279,1294 C 8047,1207 7844,1332 7771,1608 7755,1669 7752,1713 7750,1912 7747,2244 7729,2294 7486,2663 7218,3069 7065,3462 7038,3810 7000,4304 7500,4691 8185,4697 L 8342,4698 8342,4746 8342,4794 8284,4800 C 7751,4855 7179,4607 6994,4238 6815,3885 6973,3274 7415,2608 7663,2235 7690,2153 7692,1772 7693,1578 7696,1530 7710,1479 7783,1219 7967,1091 8186,1148 Z M 8281,1313 L 8337,1334 8340,1392 8343,1450 8303,1437 C 8008,1332 7826,1555 7830,2019 7832,2293 7807,2365 7605,2671 7217,3258 7084,3776 7241,4086 7393,4388 7859,4607 8291,4580 L 8342,4577 8342,4625 C 8342,4681 8334,4684 8217,4684 7742,4684 7315,4491 7144,4200 6947,3862 7086,3293 7529,2625 7744,2300 7774,2207 7770,1866 7766,1415 7973,1191 8281,1313 Z M 8287,1448 L 8342,1463 8342,1522 8342,1582 8316,1575 C 8059,1503 7912,1698 7909,2117 7906,2390 7894,2423 7679,2751 7383,3201 7249,3662 7337,3927 7437,4231 7804,4445 8242,4454 L 8342,4456 8342,4511 8342,4566 8209,4560 C 7496,4529 7100,4150 7212,3608 7284,3262 7378,3044 7609,2695 7825,2369 7849,2298 7848,1999 7846,1567 8004,1368 8287,1448 Z M 8331,1594 C 8337,1598 8342,1624 8342,1659 L 8342,1717 8300,1713 C 8096,1697 7986,1873 7988,2215 7989,2446 7969,2500 7791,2770 7534,3160 7399,3588 7460,3821 7536,4113 7824,4294 8279,4335 L 8342,4341 8342,4392 8342,4442 8291,4442 C 7879,4442 7505,4256 7379,3989 7246,3709 7374,3238 7726,2708 7906,2436 7924,2383 7927,2099 7930,1793 7989,1651 8137,1597 8179,1582 8307,1580 8331,1594 Z M 8342,1795 L 8342,1859 8297,1865 C 8144,1885 8065,2029 8069,2283 8073,2503 8052,2563 7886,2817 7705,3096 7604,3352 7581,3592 7551,3904 7854,4177 8265,4206 L 8342,4212 8342,4267 C 8342,4330 8352,4327 8202,4311 7861,4276 7590,4112 7496,3883 7401,3652 7526,3198 7796,2794 7987,2506 7997,2479 8006,2196 8016,1856 8090,1734 8288,1731 L 8342,1731 8342,1795 Z M 8342,1944 L 8342,2009 8302,2027 C 8192,2076 8155,2165 8146,2401 8138,2600 8130,2629 8049,2757 8022,2800 7973,2876 7940,2927 7776,3186 7684,3515 7730,3685 7785,3892 8004,4048 8289,4084 L 8342,4090 8342,4146 8342,4201 8300,4196 C 8277,4193 8238,4188 8213,4185 8069,4168 7881,4091 7778,4007 7502,3783 7548,3364 7910,2810 8071,2564 8083,2529 8085,2299 8088,2022 8163,1882 8311,1880 L 8342,1880 8342,1944 Z M 8342,2102 C 8342,2175 8341,2176 8306,2212 8248,2270 8227,2337 8228,2471 8229,2657 8213,2704 8081,2905 7872,3222 7804,3511 7894,3694 7956,3819 8179,3958 8321,3958 8340,3958 8342,3962 8342,4014 8342,4078 8343,4077 8243,4060 7673,3959 7579,3510 7995,2874 8151,2634 8156,2622 8164,2390 L 8170,2216 8202,2153 C 8227,2104 8245,2082 8280,2059 8341,2018 8342,2018 8342,2102 Z M 8327,2424 C 8316,2451 8309,2503 8305,2597 8298,2755 8292,2771 8191,2926 7894,3381 7936,3727 8299,3819 L 8342,3829 8342,3889 8342,3949 8316,3943 C 7804,3832 7731,3463 8108,2893 8229,2708 8240,2675 8243,2490 8245,2337 8259,2286 8312,2231 L 8337,2204 8340,2295 C 8342,2364 8339,2395 8327,2424 Z M 8342,3128 L 8342,3817 8292,3800 C 8004,3701 7937,3506 8077,3168 8108,3092 8127,3058 8233,2891 8303,2781 8323,2715 8323,2593 8323,2505 8330,2439 8338,2439 8340,2439 8342,2749 8342,3128 Z M 2355,7155 C 2576,7288 2798,7385 3082,7475 3175,7505 3288,7547 3334,7569 3757,7770 4095,8287 4193,8882 4215,9018 4215,9018 4161,9018 4109,9018 4111,9021 4099,8915 4059,8563 3878,8151 3655,7903 3470,7698 3343,7620 3018,7513 2560,7363 2041,7075 2041,6972 L 2041,6940 2146,7017 C 2204,7059 2298,7121 2355,7155 Z M 2266,7182 C 2472,7317 2799,7465 3059,7541 3582,7693 3966,8193 4076,8864 4103,9025 4105,9018 4045,9018 L 3995,9018 3989,8947 C 3963,8645 3823,8273 3643,8033 3460,7788 3282,7667 2961,7568 2685,7483 2406,7349 2181,7193 2058,7107 2041,7090 2041,7055 L 2041,7022 2096,7064 C 2125,7087 2202,7140 2266,7182 Z M 2292,7282 C 2489,7404 2700,7499 2965,7583 3174,7649 3257,7689 3390,7793 3702,8033 3922,8473 3978,8964 L 3984,9018 3934,9018 3884,9018 3872,8917 C 3811,8392 3545,7936 3179,7729 3129,7701 3042,7666 2925,7629 2627,7532 2436,7443 2218,7298 2055,7190 2041,7178 2041,7139 L 2041,7107 2120,7166 C 2164,7198 2241,7250 2292,7282 Z M 2277,7356 C 2464,7471 2694,7573 2924,7642 3438,7797 3814,8318 3859,8941 L 3864,9018 3817,9018 C 3762,9018 3765,9024 3754,8892 3706,8320 3365,7844 2895,7693 2483,7560 2041,7318 2041,7224 L 2041,7191 2116,7247 C 2158,7277 2230,7326 2277,7356 Z M 2325,7466 C 2473,7552 2614,7613 2825,7682 2926,7715 3039,7759 3077,7779 3415,7955 3672,8376 3735,8855 3758,9024 3759,9018 3698,9018 L 3647,9018 3647,8973 C 3645,8635 3478,8225 3245,7992 3106,7852 3029,7809 2771,7723 2430,7611 2041,7390 2041,7308 L 2041,7276 2131,7340 C 2180,7375 2267,7432 2325,7466 Z M 2292,7528 C 2428,7608 2584,7677 2779,7741 2973,7804 3045,7839 3149,7922 3412,8129 3601,8524 3627,8917 L 3633,9018 3585,9018 3537,9018 3531,8983 C 3528,8963 3526,8926 3526,8900 3525,8751 3450,8480 3362,8311 3217,8032 3040,7881 2755,7792 2426,7690 2041,7474 2041,7392 L 2041,7360 2118,7415 C 2161,7445 2239,7496 2292,7528 Z M 2262,7592 C 2386,7668 2524,7728 2715,7792 2817,7826 2921,7868 2959,7890 3267,8066 3486,8470 3513,8914 L 3519,9018 3468,9018 3416,9018 3410,8901 C 3391,8515 3214,8148 2961,7969 2880,7912 2841,7894 2661,7834 2350,7728 2041,7550 2041,7475 L 2041,7444 2112,7494 C 2151,7522 2218,7566 2262,7592 Z M 2234,7658 C 2356,7731 2491,7791 2663,7848 2847,7909 2931,7954 3024,8040 3243,8241 3378,8551 3392,8885 L 3398,9018 3346,9018 3295,9018 3289,8875 C 3271,8380 3036,8030 2634,7899 2340,7803 2041,7632 2041,7559 L 2041,7527 2098,7569 C 2130,7592 2191,7632 2234,7658 Z M 2226,7735 C 2321,7792 2468,7857 2597,7900 2849,7982 2957,8061 3086,8252 3213,8440 3306,8790 3278,8974 L 3271,9018 3223,9018 3174,9018 3174,8880 C 3172,8412 2950,8073 2561,7946 2296,7860 2041,7711 2041,7642 L 2041,7610 2104,7655 C 2139,7680 2194,7716 2226,7735 Z M 2326,7868 C 2383,7895 2485,7936 2553,7959 2941,8091 3161,8423 3161,8876 3161,9015 3160,9018 3094,9018 3040,9018 3038,9017 3044,8997 3086,8852 3041,8564 2949,8379 2848,8177 2737,8081 2515,8005 2253,7916 2041,7792 2041,7728 L 2041,7696 2132,7757 C 2182,7791 2270,7841 2326,7868 Z M 2298,7933 C 2355,7960 2443,7995 2494,8012 2876,8134 3108,8549 3032,8976 L 3026,9013 2968,9016 C 2936,9017 2909,9016 2909,9014 2909,9011 2916,8981 2924,8946 3011,8579 2799,8171 2466,8062 2247,7991 2048,7874 2043,7814 L 2040,7779 2118,7831 C 2161,7860 2242,7906 2298,7933 Z M 2248,7988 C 2292,8011 2377,8046 2436,8066 2656,8142 2747,8221 2840,8417 2918,8582 2948,8824 2907,8966 L 2894,9013 2828,9016 2762,9018 2785,8963 C 2871,8748 2805,8435 2633,8254 2565,8182 2519,8154 2386,8108 2190,8040 2041,7948 2041,7895 L 2041,7862 2104,7905 C 2138,7928 2203,7966 2248,7988 Z M 2233,8063 C 2269,8080 2338,8107 2386,8123 2718,8231 2906,8651 2768,8973 L 2748,9018 2670,9018 2591,9018 2615,8992 C 2755,8843 2723,8487 2554,8297 2497,8233 2456,8208 2345,8169 2160,8104 2041,8030 2041,7979 L 2041,7946 2104,7989 C 2139,8012 2197,8045 2233,8063 Z M 2196,8125 C 2211,8133 2268,8155 2321,8174 2375,8192 2439,8221 2464,8236 2688,8380 2767,8814 2599,8987 L 2570,9018 2306,9018 2041,9018 2041,8524 2041,8030 2104,8071 C 2139,8093 2180,8118 2196,8125 Z"/>
         <path fill="rgb(243,123,4)" stroke="none" d="M 2041,1321 L 2041,1955 2114,1949 C 2770,1895 3287,1395 3380,726 L 3386,687 2714,687 2041,687 2041,1321 Z"/>
         <path fill="rgb(130,132,139)" stroke="none" d="M 8335,771 C 8335,799 8337,810 8339,796 8341,782 8341,759 8339,745 8337,731 8335,743 8335,771 Z M 8335,892 C 8335,920 8337,932 8339,917 8341,903 8341,880 8339,866 8337,852 8335,864 8335,892 Z M 7702,959 L 7674,990 7705,962 C 7721,947 7735,934 7735,932 7735,925 7727,931 7702,959 Z M 8335,1013 C 8335,1041 8337,1053 8339,1039 8341,1025 8341,1001 8339,987 8337,973 8335,985 8335,1013 Z M 8017,991 C 8026,994 8041,994 8050,991 8059,989 8052,987 8034,987 8016,987 8008,989 8017,991 Z M 7753,1085 L 7721,1120 7756,1088 C 7789,1058 7795,1050 7788,1050 7787,1050 7771,1066 7753,1085 Z M 8332,1137 L 8337,1195 8340,1144 C 8341,1117 8339,1091 8335,1087 8331,1082 8330,1105 8332,1137 Z M 8069,1141 C 8080,1143 8099,1143 8111,1141 8122,1138 8113,1137 8090,1137 8067,1137 8057,1138 8069,1141 Z M 8335,1260 C 8335,1291 8337,1302 8339,1285 8341,1269 8341,1243 8339,1229 8337,1215 8335,1229 8335,1260 Z M 7346,1274 C 7346,1307 7348,1321 7350,1304 7352,1288 7352,1260 7350,1244 7348,1227 7346,1241 7346,1274 Z M 8332,1388 L 8337,1446 8340,1396 C 8341,1368 8339,1342 8335,1338 8331,1334 8330,1357 8332,1388 Z M 7505,1484 C 7505,1514 7506,1526 7508,1509 7510,1492 7510,1467 7508,1453 7506,1439 7505,1453 7505,1484 Z M 7354,1470 C 7354,1488 7356,1495 7359,1486 7361,1477 7361,1462 7359,1453 7356,1444 7354,1452 7354,1470 Z M 8332,1519 L 8337,1577 8340,1527 C 8341,1499 8339,1473 8335,1469 8331,1465 8330,1487 8332,1519 Z M 7354,1581 C 7354,1599 7356,1607 7359,1598 7361,1589 7361,1574 7359,1565 7356,1556 7354,1563 7354,1581 Z M 8335,1656 C 8335,1689 8337,1703 8339,1686 8341,1670 8341,1642 8339,1626 8337,1609 8335,1623 8335,1656 Z M 7514,1707 C 7514,1743 7516,1757 7518,1737 7520,1718 7520,1689 7518,1672 7516,1656 7514,1671 7514,1707 Z M 7663,1698 C 7663,1729 7665,1740 7667,1723 7669,1707 7669,1681 7667,1667 7665,1653 7663,1667 7663,1698 Z M 7457,1684 C 7457,1702 7459,1709 7461,1700 7464,1691 7464,1677 7461,1668 7459,1659 7457,1666 7457,1684 Z M 7617,1800 C 7617,1841 7619,1857 7621,1835 7622,1813 7622,1780 7620,1761 7618,1741 7617,1759 7617,1800 Z M 8317,1737 C 8332,1741 8333,1750 8331,1801 8329,1834 8331,1861 8335,1861 8354,1861 8337,1735 8318,1733 8302,1732 8302,1732 8317,1737 Z M 8094,1789 L 8066,1819 8097,1792 C 8113,1777 8127,1763 8127,1761 8127,1754 8119,1761 8094,1789 Z M 7822,1908 C 7822,1936 7824,1947 7826,1933 7828,1919 7828,1896 7826,1882 7824,1868 7822,1879 7822,1908 Z M 8336,1945 C 8336,1983 8337,1999 8339,1980 8341,1961 8341,1929 8339,1910 8337,1891 8336,1906 8336,1945 Z M 7775,1982 C 7775,2005 7777,2015 7779,2003 7781,1992 7781,1973 7779,1961 7777,1950 7775,1959 7775,1982 Z M 8336,2108 C 8336,2149 8337,2165 8339,2143 8341,2121 8341,2087 8339,2068 8337,2049 8336,2067 8336,2108 Z M 7980,2122 C 7980,2145 7982,2154 7984,2143 7986,2131 7986,2112 7984,2101 7982,2089 7980,2099 7980,2122 Z M 8336,2299 C 8336,2353 8337,2375 8339,2348 8341,2321 8341,2277 8339,2250 8337,2223 8336,2245 8336,2299 Z M 8064,2346 C 8064,2374 8066,2385 8068,2371 8070,2357 8070,2334 8068,2320 8066,2306 8064,2317 8064,2346 Z M 8139,2341 C 8139,2361 8141,2369 8143,2357 8145,2345 8145,2329 8143,2320 8140,2311 8139,2320 8139,2341 Z M 8332,2478 C 8329,2588 8334,3804 8337,3807 8340,3810 8342,3507 8342,3135 8342,2762 8340,2457 8337,2457 8334,2457 8332,2467 8332,2478 Z M 7980,3464 C 7980,3487 7982,3496 7984,3485 7986,3473 7986,3454 7984,3443 7982,3431 7980,3441 7980,3464 Z M 7868,3529 C 7868,3547 7870,3554 7872,3545 7874,3536 7874,3522 7872,3513 7870,3504 7868,3511 7868,3529 Z M 7710,3576 C 7710,3604 7712,3615 7714,3601 7716,3587 7716,3564 7714,3550 7712,3536 7710,3547 7710,3576 Z M 7598,3636 C 7598,3662 7600,3671 7602,3657 7604,3643 7604,3622 7602,3610 7599,3599 7598,3611 7598,3636 Z M 7327,3748 C 7327,3779 7329,3790 7331,3773 7333,3757 7333,3732 7331,3718 7329,3704 7327,3717 7327,3748 Z M 8332,3886 L 8337,3944 8340,3893 C 8341,3866 8339,3840 8335,3836 8331,3831 8330,3854 8332,3886 Z M 7842,3892 C 7862,3913 7881,3930 7883,3930 7886,3930 7872,3913 7852,3892 7832,3872 7813,3855 7811,3855 7808,3855 7822,3872 7842,3892 Z M 7726,3990 C 7743,4008 7759,4023 7762,4023 7765,4023 7752,4008 7735,3990 7718,3972 7701,3958 7699,3958 7696,3958 7708,3972 7726,3990 Z M 8335,4018 C 8335,4049 8337,4060 8339,4044 8341,4027 8341,4002 8339,3988 8337,3974 8335,3987 8335,4018 Z M 7595,4074 C 7612,4092 7629,4107 7631,4107 7634,4107 7622,4092 7604,4074 7587,4056 7571,4041 7568,4041 7565,4041 7578,4056 7595,4074 Z M 8330,4128 C 8335,4193 8339,4199 8341,4142 8341,4112 8338,4088 8334,4088 8330,4088 8329,4106 8330,4128 Z M 6216,4177 C 6216,4197 6218,4204 6220,4193 6222,4181 6222,4164 6220,4156 6218,4147 6216,4156 6216,4177 Z M 8331,4270 C 8329,4298 8331,4321 8335,4321 8339,4321 8342,4298 8342,4270 8342,4204 8335,4204 8331,4270 Z M 8335,4386 C 8335,4414 8337,4426 8339,4412 8341,4398 8341,4375 8339,4361 8337,4347 8335,4358 8335,4386 Z M 8335,4507 C 8335,4536 8337,4547 8339,4533 8341,4519 8341,4496 8339,4482 8337,4468 8335,4479 8335,4507 Z M 8232,4560 C 8241,4563 8256,4563 8265,4560 8274,4558 8266,4556 8248,4556 8230,4556 8223,4558 8232,4560 Z M 8335,4629 C 8335,4657 8337,4668 8339,4654 8341,4640 8341,4617 8339,4603 8337,4589 8335,4600 8335,4629 Z M 6783,4726 C 6811,4755 6836,4778 6838,4778 6841,4778 6820,4755 6792,4726 6764,4698 6739,4675 6737,4675 6734,4675 6755,4698 6783,4726 Z M 8190,4682 C 8202,4684 8219,4684 8227,4682 8236,4679 8227,4677 8206,4678 8186,4678 8179,4680 8190,4682 Z M 8328,4745 C 8328,4773 8331,4796 8335,4796 8339,4796 8342,4773 8342,4745 8342,4717 8339,4694 8335,4694 8331,4694 8328,4717 8328,4745 Z M 8139,4803 C 8153,4805 8174,4805 8185,4803 8197,4801 8185,4799 8160,4799 8134,4799 8125,4801 8139,4803 Z M 8335,4862 C 8335,4890 8337,4901 8339,4887 8341,4873 8341,4850 8339,4836 8337,4822 8335,4833 8335,4862 Z M 6531,4931 C 6564,4965 6593,4992 6596,4992 6598,4992 6573,4965 6540,4931 6507,4898 6478,4871 6475,4871 6473,4871 6498,4898 6531,4931 Z M 8097,4924 C 8114,4926 8139,4926 8153,4924 8167,4922 8153,4920 8122,4920 8092,4920 8080,4922 8097,4924 Z M 8335,4983 C 8335,5011 8337,5022 8339,5008 8341,4994 8341,4971 8339,4957 8337,4943 8335,4954 8335,4983 Z M 8040,5045 C 8057,5047 8086,5047 8106,5045 8125,5043 8112,5042 8076,5042 8040,5042 8024,5043 8040,5045 Z M 8331,5091 C 8333,5120 8330,5137 8322,5143 8311,5150 8312,5151 8323,5148 8338,5144 8350,5048 8335,5048 8331,5048 8329,5067 8331,5091 Z M 7975,5167 C 8002,5168 8046,5168 8073,5167 8100,5165 8078,5163 8024,5163 7970,5163 7948,5165 7975,5167 Z M 8335,5216 C 8335,5244 8337,5255 8339,5241 8341,5227 8341,5204 8339,5190 8337,5176 8335,5187 8335,5216 Z M 7901,5288 C 7918,5290 7943,5290 7957,5287 7971,5285 7957,5284 7926,5284 7896,5284 7884,5286 7901,5288 Z M 8017,5288 C 8032,5290 8053,5290 8064,5287 8076,5285 8064,5283 8038,5284 8013,5284 8003,5285 8017,5288 Z M 8331,5324 C 8333,5353 8330,5370 8322,5376 8311,5383 8312,5384 8323,5381 8338,5377 8350,5281 8335,5281 8331,5281 8329,5300 8331,5324 Z M 7849,5409 C 7863,5411 7887,5411 7901,5409 7915,5407 7903,5405 7875,5405 7847,5405 7835,5407 7849,5409 Z M 7980,5409 C 7994,5411 8015,5411 8027,5409 8038,5406 8027,5405 8001,5405 7975,5405 7966,5407 7980,5409 Z M 8337,7210 C 8337,8207 8338,8614 8339,8116 8341,7618 8341,6802 8339,6304 8338,5805 8337,6213 8337,7210 Z M 3679,7797 C 3700,7817 3718,7834 3721,7834 3723,7834 3709,7817 3689,7797 3669,7776 3650,7760 3648,7760 3645,7760 3659,7776 3679,7797 Z M 3507,7876 C 3540,7909 3569,7937 3572,7937 3574,7937 3549,7909 3516,7876 3483,7843 3454,7815 3451,7815 3449,7815 3474,7843 3507,7876 Z M 3493,7890 C 3518,7916 3541,7937 3543,7937 3546,7937 3527,7916 3502,7890 3477,7864 3454,7843 3452,7843 3449,7843 3468,7864 3493,7890 Z M 3283,7932 C 3300,7950 3317,7965 3319,7965 3322,7965 3310,7950 3292,7932 3275,7914 3258,7899 3256,7899 3253,7899 3265,7914 3283,7932 Z M 3241,7983 C 3266,8009 3289,8030 3291,8030 3294,8030 3275,8009 3250,7983 3225,7958 3202,7937 3200,7937 3197,7937 3216,7958 3241,7983 Z M 3045,8067 C 3070,8093 3093,8114 3095,8114 3098,8114 3079,8093 3054,8067 3029,8041 3006,8020 3004,8020 3001,8020 3020,8041 3045,8067 Z M 2797,8163 C 2820,8187 2840,8207 2841,8207 2848,8207 2841,8198 2800,8160 L 2755,8118 2797,8163 Z M 2779,8174 C 2796,8192 2813,8207 2815,8207 2818,8207 2806,8192 2788,8174 2771,8156 2754,8142 2752,8142 2749,8142 2761,8156 2779,8174 Z M 2536,8277 C 2554,8295 2570,8309 2572,8309 2575,8309 2563,8295 2545,8277 2528,8259 2512,8244 2509,8244 2507,8244 2519,8259 2536,8277 Z M 2707,8710 C 2707,8738 2709,8750 2711,8736 2713,8722 2713,8699 2711,8684 2709,8670 2707,8682 2707,8710 Z M 3154,8827 C 3155,8847 3157,8854 3159,8843 3161,8831 3161,8814 3159,8805 3156,8797 3154,8806 3154,8827 Z M 3295,8864 C 3295,8884 3297,8892 3299,8880 3301,8868 3301,8852 3299,8843 3296,8834 3294,8843 3295,8864 Z M 3294,8962 C 3294,8980 3296,8987 3299,8978 3301,8969 3301,8954 3299,8945 3296,8936 3294,8944 3294,8962 Z M 3509,8976 C 3510,9001 3511,9011 3514,8996 3516,8982 3516,8961 3513,8950 3511,8938 3509,8950 3509,8976 Z"/>
         <path fill="rgb(164,164,172)" stroke="none" d="M 7290,1116 C 7290,1139 7291,1148 7294,1136 7296,1125 7296,1106 7294,1095 7291,1083 7290,1092 7290,1116 Z M 7290,1209 C 7290,1232 7291,1241 7294,1230 7296,1218 7296,1199 7294,1188 7291,1176 7290,1186 7290,1209 Z M 7448,1334 C 7448,1355 7450,1362 7452,1351 7454,1339 7454,1322 7452,1313 7450,1304 7448,1314 7448,1334 Z M 7300,1437 C 7300,1483 7301,1503 7303,1482 7305,1460 7305,1422 7303,1398 7301,1373 7300,1391 7300,1437 Z M 7281,1428 C 7281,1458 7282,1470 7284,1453 7286,1436 7286,1411 7284,1397 7282,1383 7280,1397 7281,1428 Z M 7448,1423 C 7448,1446 7450,1456 7452,1444 7454,1432 7454,1414 7452,1402 7450,1391 7448,1400 7448,1423 Z M 7607,1549 C 7607,1569 7609,1577 7611,1565 7613,1553 7613,1537 7611,1528 7608,1519 7607,1528 7607,1549 Z M 7458,1609 C 7458,1638 7460,1649 7462,1635 7464,1621 7464,1598 7462,1584 7460,1570 7458,1581 7458,1609 Z M 7607,1633 C 7607,1653 7609,1660 7611,1649 7613,1637 7613,1621 7611,1612 7608,1603 7607,1612 7607,1633 Z M 7765,1768 C 7765,1786 7767,1793 7769,1784 7772,1775 7772,1760 7769,1751 7767,1743 7765,1750 7765,1768 Z M 7765,1838 C 7765,1858 7767,1865 7770,1854 7772,1842 7772,1826 7769,1817 7767,1808 7765,1817 7765,1838 Z M 7672,1842 C 7672,1860 7674,1868 7676,1859 7678,1850 7678,1835 7676,1826 7674,1817 7672,1824 7672,1842 Z M 7672,1945 C 7672,1963 7674,1970 7676,1961 7678,1952 7678,1938 7676,1929 7674,1920 7672,1927 7672,1945 Z M 7925,2019 C 7925,2058 7926,2074 7928,2054 7930,2035 7930,2004 7928,1984 7926,1965 7925,1981 7925,2019 Z M 7849,2038 C 7849,2056 7851,2063 7853,2054 7856,2045 7856,2031 7853,2022 7851,2013 7849,2020 7849,2038 Z M 7831,2080 C 7831,2111 7833,2122 7835,2105 7837,2089 7837,2064 7835,2050 7833,2036 7831,2049 7831,2080 Z M 7849,2122 C 7849,2140 7851,2147 7853,2138 7856,2129 7856,2115 7853,2106 7851,2097 7849,2104 7849,2122 Z M 8083,2234 C 8083,2267 8085,2281 8087,2264 8089,2247 8089,2220 8087,2203 8085,2187 8083,2200 8083,2234 Z M 8008,2262 C 8008,2290 8010,2301 8012,2287 8015,2273 8015,2250 8012,2236 8010,2222 8008,2233 8008,2262 Z M 8242,2443 C 8242,2474 8244,2486 8246,2469 8248,2452 8248,2427 8246,2413 8244,2399 8242,2413 8242,2443 Z M 7168,3795 C 7168,3820 7170,3830 7172,3815 7174,3801 7174,3780 7172,3769 7170,3757 7168,3769 7168,3795 Z M 6898,3911 C 6898,3944 6900,3958 6902,3941 6904,3925 6904,3897 6902,3881 6900,3864 6898,3878 6898,3911 Z M 6626,3986 C 6626,4004 6628,4011 6631,4002 6633,3993 6633,3978 6631,3969 6628,3960 6626,3968 6626,3986 Z M 6646,4018 C 6646,4049 6648,4060 6650,4044 6652,4027 6652,4002 6650,3988 6647,3974 6646,3987 6646,4018 Z M 7595,4044 C 7595,4046 7609,4060 7625,4075 L 7656,4102 7628,4072 C 7603,4044 7595,4037 7595,4044 Z M 6375,4121 C 6375,4141 6377,4148 6379,4137 6381,4125 6381,4109 6379,4100 6376,4091 6375,4100 6375,4121 Z M 7474,4138 C 7474,4139 7487,4153 7504,4168 L 7534,4195 7507,4165 C 7481,4137 7474,4130 7474,4138 Z M 6356,4181 C 6356,4199 6358,4207 6360,4198 6362,4189 6362,4174 6360,4165 6358,4156 6356,4163 6356,4181 Z M 8274,4318 C 8286,4321 8303,4320 8311,4318 8320,4316 8311,4314 8290,4314 8270,4314 8263,4316 8274,4318 Z M 8218,4439 C 8230,4442 8248,4442 8260,4439 8272,4437 8262,4435 8239,4435 8216,4435 8206,4437 8218,4439 Z M 8171,4561 C 8183,4563 8200,4563 8209,4560 8218,4558 8208,4556 8188,4556 8167,4556 8160,4558 8171,4561 Z M 8293,4561 C 8304,4563 8321,4563 8330,4560 8339,4558 8330,4556 8309,4556 8288,4556 8281,4558 8293,4561 Z M 6890,4647 C 6910,4668 6929,4684 6931,4684 6934,4684 6920,4668 6900,4647 6880,4627 6861,4610 6859,4610 6856,4610 6870,4627 6890,4647 Z M 8125,4682 C 8136,4684 8153,4684 8162,4682 8171,4679 8162,4677 8141,4678 8120,4678 8113,4680 8125,4682 Z M 8255,4682 C 8267,4684 8284,4684 8293,4682 8302,4679 8292,4677 8272,4678 8251,4678 8244,4680 8255,4682 Z M 6643,4799 C 6643,4801 6657,4814 6673,4829 L 6704,4857 6676,4827 C 6651,4798 6643,4792 6643,4799 Z M 8069,4803 C 8080,4805 8097,4805 8106,4803 8115,4800 8106,4799 8085,4799 8064,4799 8057,4801 8069,4803 Z M 8218,4803 C 8230,4805 8247,4805 8255,4803 8264,4800 8255,4799 8234,4799 8214,4799 8207,4801 8218,4803 Z M 8022,4924 C 8034,4926 8051,4926 8059,4924 8068,4922 8059,4920 8038,4920 8018,4920 8011,4922 8022,4924 Z M 8185,4924 C 8194,4926 8209,4926 8218,4924 8227,4922 8220,4920 8202,4920 8184,4920 8176,4922 8185,4924 Z M 7966,5045 C 7978,5047 7995,5047 8003,5045 8012,5043 8003,5041 7982,5041 7962,5041 7954,5043 7966,5045 Z M 8148,5045 C 8157,5047 8172,5047 8181,5045 8190,5043 8182,5041 8164,5041 8146,5041 8139,5043 8148,5045 Z M 8129,5166 C 8138,5168 8153,5168 8162,5166 8171,5164 8164,5162 8146,5162 8128,5162 8120,5164 8129,5166 Z M 8092,5287 C 8101,5290 8116,5290 8125,5287 8134,5285 8126,5283 8108,5283 8090,5283 8083,5285 8092,5287 Z M 8055,5408 C 8064,5411 8078,5411 8087,5408 8096,5406 8089,5404 8071,5404 8053,5404 8046,5406 8055,5408 Z M 3670,7815 C 3695,7841 3718,7862 3721,7862 3723,7862 3705,7841 3679,7815 3654,7790 3631,7769 3629,7769 3626,7769 3645,7790 3670,7815 Z M 3376,7893 C 3376,7895 3390,7908 3406,7923 L 3437,7951 3409,7920 C 3384,7892 3376,7886 3376,7893 Z M 3325,7946 C 3350,7972 3373,7993 3375,7993 3378,7993 3359,7972 3334,7946 3309,7920 3286,7899 3284,7899 3281,7899 3300,7920 3325,7946 Z M 3040,8033 C 3040,8034 3054,8048 3070,8063 L 3101,8090 3073,8060 C 3048,8032 3040,8026 3040,8033 Z M 2676,8191 C 2676,8193 2690,8206 2706,8221 L 2737,8249 2709,8218 C 2684,8190 2676,8184 2676,8191 Z M 2620,8239 C 2638,8257 2654,8272 2656,8272 2659,8272 2647,8257 2629,8239 2612,8222 2596,8207 2593,8207 2591,8207 2603,8222 2620,8239 Z M 2688,8719 C 2688,8737 2690,8745 2692,8736 2694,8727 2694,8712 2692,8703 2690,8694 2688,8701 2688,8719 Z M 2921,8747 C 2921,8765 2923,8773 2925,8764 2928,8755 2928,8740 2925,8731 2923,8722 2921,8729 2921,8747 Z M 2940,8789 C 2940,8820 2942,8831 2944,8815 2946,8798 2946,8773 2944,8759 2942,8745 2940,8759 2940,8789 Z M 3276,8915 C 3276,8948 3278,8962 3280,8945 3282,8929 3282,8901 3280,8885 3278,8868 3276,8882 3276,8915 Z M 3528,8938 C 3528,8959 3530,8966 3532,8955 3534,8943 3534,8926 3532,8917 3530,8908 3528,8918 3528,8938 Z"/>
        </g>
       </g>
      </g>
     </g>
    </g>
   </g>
  </g>
 </g>
</svg>